<?xml version="1.0" encoding="utf-8"?>
<!-- Generator: Adobe Illustrator 24.2.0, SVG Export Plug-In . SVG Version: 6.00 Build 0)  -->
<svg version="1.1" id="Layer_2" xmlns="http://www.w3.org/2000/svg" xmlns:xlink="http://www.w3.org/1999/xlink" x="0px" y="0px"
	 viewBox="0 0 141.67 139.54" style="enable-background:new 0 0 141.67 139.54;" xml:space="preserve">
<style type="text/css">
	.st0{fill:#FFFFFF;}
</style>
<g>
	<path class="st0" d="M71.83,21.46V1c0-0.55-0.45-1-1-1c-0.55,0-1,0.45-1,1v20.46C70.5,21.43,71.17,21.43,71.83,21.46z"/>
	<path class="st0" d="M45.77,28.44c0.57-0.35,1.15-0.67,1.73-1L37.26,9.74c-0.28-0.48-0.89-0.64-1.37-0.36
		c-0.48,0.28-0.64,0.89-0.36,1.37L45.77,28.44z"/>
	<path class="st0" d="M10.5,34.73c-0.28,0.48-0.12,1.09,0.36,1.37l17.68,10.27c0.32-0.58,0.65-1.16,1-1.73L11.87,34.36
		C11.39,34.09,10.78,34.25,10.5,34.73z"/>
	<path class="st0" d="M106.41,8.52c-1.3-2.06-11.54,18.84-12.17,18.96c0.58,0.32,1.16,0.65,1.73,1
		C95.84,27.74,108.82,8.69,106.41,8.52z"/>
	<path class="st0" d="M131.78,35.67c1.13-0.63,0.11-2.4-1-1.73c0,0-18.61,10.77-18.61,10.77c0.35,0.57,0.67,1.15,1,1.73
		L131.78,35.67z"/>
	<path class="st0" d="M22.5,69.77c0-0.33,0.02-0.67,0.03-1H1c-0.55,0-1,0.45-1,1c-1.24,2.14,22.16,0.53,22.53,1
		C22.52,70.44,22.5,70.11,22.5,69.77z"/>
	<path class="st0" d="M140.67,68.77h-21.53c0.03,0.67,0.03,1.33,0,2h21.53C141.96,70.79,141.96,68.75,140.67,68.77z"/>
	<path class="st0" d="M130.8,103.45l-17.68-10.27c-0.32,0.58-0.65,1.16-1,1.73l17.68,10.27C130.9,105.85,131.94,104.08,130.8,103.45
		z"/>
	<path class="st0" d="M9.88,103.87c-1.13,0.63-0.11,2.4,1,1.73c0,0,18.61-10.77,18.61-10.77c-0.35-0.57-0.67-1.15-1-1.73
		L9.88,103.87z"/>
	<path class="st0" d="M95.9,111.1c-0.57,0.35-1.15,0.67-1.73,1l10.24,17.7c0.28,0.48,0.9,0.64,1.37,0.36
		c0.48-0.28,0.64-0.89,0.36-1.37L95.9,111.1z"/>
	<path class="st0" d="M34.89,129.65c-0.67,1.11,1.09,2.14,1.73,1c0,0,10.8-18.6,10.8-18.6c-0.58-0.32-1.16-0.65-1.73-1L34.89,129.65
		z"/>
	<path class="st0" d="M69.83,118.08v20.46c0,0.55,0.45,1,1,1c0.55,0,1-0.45,1-1v-20.46C71.17,118.11,70.5,118.11,69.83,118.08z"/>
	<path class="st0" d="M104.74,51.89c1.7-0.95,0.17-3.6-1.5-2.6c0,0-28.43,16.45-28.43,16.45l0,0c-2-2.14-5.94-2.14-7.95-0.01
		L46.52,53.91c-0.72-0.42-1.63-0.17-2.05,0.54c-0.42,0.72-0.17,1.63,0.54,2.05l20.35,11.82c-2.01,9.24,12.95,9.25,10.95,0.01
		L104.74,51.89z M75.34,66.35c-0.02-0.03-0.04-0.05-0.06-0.08C75.31,66.3,75.32,66.32,75.34,66.35z M75.74,66.94
		c-0.01-0.01-0.01-0.02-0.02-0.04C75.72,66.91,75.73,66.93,75.74,66.94z M65.96,66.89c-0.01,0.01-0.01,0.02-0.02,0.04
		C65.94,66.92,65.95,66.91,65.96,66.89z M66.38,66.27c-0.02,0.02-0.03,0.04-0.05,0.07C66.35,66.31,66.37,66.29,66.38,66.27z
		 M70.83,72.44c-3.46,0.05-3.46-5.38,0-5.33C74.29,67.06,74.29,72.49,70.83,72.44z"/>
</g>
</svg>
