<svg version="1.1" id="Layer_1" xmlns="http://www.w3.org/2000/svg" x="0" y="0" viewBox="0 0 225.81 30.04" xml:space="preserve"><style>.st0{fill:#fff}.st1{fill:#636466}</style><path transform="rotate(-44.996 3.493 13.172)" class="st0" d="M1.02 10.7h4.94v4.94H1.02z"/><path transform="rotate(-45.001 218.616 13.186)" class="st0" d="M216.15 10.71h4.94v4.94h-4.94z"/><path class="st1" d="M28.6 13.3h1.28V8.21h2V6.94H28.6zm9.11.93V6.48c0-1.1-.65-2.03-1.57-2.49.18.37.29.78.29 1.21v7.75c0 .86-.38 1.62-1.02 2.15.56.6 1.02 1.28 1.02 2.26v8.62c0 1.5-1.28 2.79-2.79 2.79h-8.29v1.27h9.56c1.5 0 2.79-1.28 2.79-2.79v-8.62c0-.98-.45-1.66-1.02-2.26.65-.52 1.03-1.27 1.03-2.14z"/><path class="st1" d="M28.6 24.21h1.28v-5.12h2v-1.28H28.6zm20.18 0h1.27v-16h2V6.94h-3.27z"/><path class="st1" d="M56.31 3.99c.18.37.29.78.29 1.21v20.78c0 1.5-1.28 2.79-2.79 2.79h-6.77a2.7 2.7 0 01-1.21-.29c.46.92 1.39 1.57 2.49 1.57h6.78c1.5 0 2.79-1.28 2.79-2.79V6.48c-.01-1.1-.66-2.03-1.58-2.49zm12.64 9.31h1.28V8.21h2V6.94h-3.28zm7.49 5.52c.98-.45 1.58-1.43 1.58-2.48V6.48c0-1.11-.65-2.06-1.57-2.5.18.37.29.79.29 1.23v9.86c0 1.05-.6 2.03-1.58 2.48l1.88 11.22h-3.46l.21 1.27h4.52l-1.87-11.22zm-5.76-1.01h-1.73v10.96h-3.24v1.27h4.52V19.09h.67zm17.85 6.4h1.27v-16h2V6.94h-3.27z"/><path class="st1" d="M96.06 3.99c.18.37.29.78.29 1.21v20.78c0 1.5-1.28 2.79-2.79 2.79H86.8a2.7 2.7 0 01-1.21-.29c.45.92 1.39 1.57 2.49 1.57h6.78c1.5 0 2.79-1.28 2.79-2.79V6.48c-.02-1.1-.67-2.03-1.59-2.49zm12.64 20.22h1.28v-16h2V6.94h-3.28z"/><path class="st1" d="M116.24 3.99c.18.37.29.78.29 1.21v20.78c0 1.5-1.28 2.79-2.79 2.79h-8.29v1.27h9.56c1.5 0 2.78-1.28 2.78-2.79V6.48c.01-1.1-.64-2.03-1.55-2.49zm12.86-.3v25.08h-3.24v1.27h4.52V3.69zm20.11 0v25.08h-3.62l.37 1.27h4.52V3.69zm-7.83 13.56v11.52h-3.25v1.27h4.52v-8.36zm19.71 1.84h3.73v-1.27h-5.01c-.44 0-.85-.11-1.22-.29.46.92 1.4 1.56 2.5 1.56zm1.73 1.69l-1.27.3v3.13h1.27zm6.27-16.79c.18.37.29.78.29 1.21v5.34l-3.28.76v1.57l4.55-1.05V6.48c0-1.1-.65-2.03-1.56-2.49z"/><path class="st1" d="M169.09 14.87c.18.37.29.78.29 1.21v9.9c0 1.5-1.28 2.79-2.79 2.79h-6.77a2.7 2.7 0 01-1.21-.29c.45.92 1.39 1.57 2.49 1.57h6.77c1.51 0 2.78-1.28 2.78-2.79v-9.9c0-1.1-.65-2.04-1.56-2.49zm-7.54-7.93v6.36h1.27V8.21h2.01V6.94zm20.59 10.87h-.41v10.96h-3.25v1.27H183v-9.49zm9.25-14.12h-1.68l-3.81 11.87 4.22 13.21h-3.67l.35 1.12.04.15h4.55l-4.21-13.21zm10.63 0v25.08h-3.25v1.27h4.52V3.69z"/><path transform="rotate(-45.009 223.435 17.979)" class="st1" d="M220.96 17.08h4.94v1.8h-4.94z"/><path transform="rotate(-45.001 8.298 17.976)" class="st1" d="M5.83 17.08h4.94v1.8H5.83z"/><path class="st0" d="M34.01 10.54c0 .87-.38 1.62-1.02 2.15.56.6 1.02 1.28 1.02 2.26v8.62c0 1.51-1.28 2.79-2.79 2.79h-9.56V0h9.56c1.5 0 2.79 1.24 2.79 2.79v7.75zm-4.55-6.02h-3.28v6.36h3.28V4.52zm0 10.88h-3.28v6.4h3.28v-6.4zM51.4 0c1.51 0 2.79 1.24 2.79 2.79v20.78c0 1.51-1.28 2.79-2.79 2.79h-6.77c-1.54 0-2.79-1.28-2.79-2.79V2.79c0-1.54 1.24-2.79 2.79-2.79h6.77zm-1.77 4.52h-3.28V21.8h3.28V4.52zm20.48 21.83L68.26 15.4h-1.73v10.95h-4.52V0h9.56c1.5 0 2.75 1.24 2.75 2.79v9.86c0 1.05-.6 2.03-1.58 2.48l1.88 11.22h-4.51zm-.3-21.83h-3.27v6.36h3.27V4.52zM91.15 0c1.51 0 2.78 1.24 2.78 2.79v20.78c0 1.51-1.28 2.79-2.78 2.79h-6.77c-1.54 0-2.79-1.28-2.79-2.79V2.79c0-1.54 1.24-2.79 2.79-2.79h6.77zm-1.77 4.52H86.1V21.8h3.28V4.52zM111.33 0c1.5 0 2.78 1.24 2.78 2.79v20.78c0 1.51-1.28 2.79-2.78 2.79h-9.56V0h9.56zm-1.77 4.52h-3.27V21.8h3.27V4.52zM122.17 0h4.52v26.35h-4.52V0zm24.61 0v26.35h-4.52l-3.31-11.52v11.52h-4.52V0h4.48l3.31 10.8V0h4.56zm17.4 10.88c1.5 0 2.79 1.24 2.79 2.79v9.9c0 1.51-1.28 2.79-2.79 2.79h-6.78c-1.54 0-2.78-1.28-2.78-2.79v-5.42l4.52-1.05v4.71h3.27v-6.4h-5.01c-1.54 0-2.78-1.24-2.78-2.79V2.79c0-1.54 1.24-2.79 2.78-2.79h6.78c1.5 0 2.79 1.24 2.79 2.79v5.34l-4.56 1.05V4.52h-3.27v6.36h5.04zm19.3 2.26l4.22 13.21h-4.55l-.04-.15-3.39-10.8h-.42v10.95h-4.52V0h4.52v10.88h.34L183.11 0h4.59l-4.22 13.14zM195.08 0h4.52v26.35h-4.52V0z"/></svg>