<svg xmlns="http://www.w3.org/2000/svg"><symbol id="icon-cool" viewBox="-0.24 -0.27 94.31 88.89"><style>.st0{fill:#826550}</style><path class="st0" d="M87.19 22.42c-.57 1.73-1.13 3.48-1.68 5.22 9.76 17.92 3.39 42.95-12.98 54.17 1.16.71 2.22 1.58 3.14 2.67C94.22 71.34 100 41.77 87.19 22.42zM9.52 70.34c.45 0 .9.01 1.34.02-23.8-35.44 17.08-81.47 55.13-61.98.72-1.16 1.53-2.25 2.44-3.26-40.52-21.58-85.74 26.03-62.2 65.36 1.13-.11 2.25-.14 3.29-.14z"/><path class="st0" d="M53.45 82.04c.44-6.14-.87-14.02.66-19.07 4.53-.08 9.56.35 13.15-.66 7.76-15.7 14.01-35.56 18.42-53.27-.72-3.09-4.25-4.15-7.24-4.6-10.6 3.43-11.96 16.1-14.47 27.62-15.79-4.14-32.29-.06-32.88 15.13-13-1.21-12.54 13.58-3.29 15.79-4.66 20.81-15.88 7.8-26.3 14.46-.83 8.06 12.63 3.37 19.07 4.6 6.59-3.93 8.46-12.59 11.84-19.73 4.67.37 10.86-.78 14.47.66V82.7c-7.83.5-15.45 1.21-19.07 5.92h44.72c-3.26-5.29-12.48-4.63-19.08-6.58zM37.67 47.19c.68-11.7 15.37-11.69 25.65-8.55.1 4.72-.52 10.16 1.31 13.15-7.04-.85-17.07-4.4-26.96-4.6z"/></symbol><symbol id="icon-expensive" viewBox="0.26 -0.01 93.64 92"><style>.st0{fill:#826550}</style><path class="st0" d="M47.08 8.17c11.91.05 11.91 18.16 0 18.21-11.91-.05-11.91-18.16 0-18.21z"/><path class="st0" d="M67.46 26.38H26.71c-3.7-.07-2.71 4.98-2.82 7.29-.02 1.95 1.84 3.07 3.64 2.82v45.39c-1.8-.25-3.67.86-3.64 2.82.15 2.31-.91 7.36 2.82 7.29h40.75a2.83 2.83 0 002.82-2.82c-.03-2.78.81-7.92-3.64-7.29V36.49c1.8.25 3.66-.86 3.64-2.82-.12-2.3.88-7.36-2.82-7.29zm-33.8 10.11h13.2l-13.2 13.2v-13.2zM60.5 81.88H47.03L60.5 68.41v13.47zm0-28.71L33.66 80.01V64.93L60.5 38.09v15.08z"/><path class="st0" d="M47.08 0C2.43-.95-16.93 59.37 18.89 84.79a7.72 7.72 0 011.18-4.19C-11.28 56.64 7.06 3.16 47.08 4c40.02-.84 58.37 52.64 27.02 76.6a7.86 7.86 0 011.18 4.18C111.1 59.36 91.72-.95 47.08 0z"/></symbol><symbol id="icon-fast" viewBox="0 0 94.94 94.16"><style>.st0{fill:#826550}</style><path class="st0" d="M90.28 28.39c-2.1-4.84-4.99-9.26-8.51-13.1-.65 1.26-1.31 2.52-1.98 3.78 2.58 3.01 4.75 6.37 6.42 10.01 1.35-.24 2.71-.46 4.07-.69zm-.27 15.17C92.34 69.32 70.55 91.7 44.74 90.1c.33 1.24.29 2.78-.18 4 29.01 1.86 53.31-24.4 49.19-53.17-1.19.95-2.44 1.82-3.74 2.63zM4 47.08C3.09 14.63 41.28-7.02 68.65 9.79c1.08-.86 2.21-1.74 3.36-2.62-59.59-33.07-104 55.46-42.35 83.64-.4-1.5-.56-3.07-.57-4.58C14.28 79.41 4 64.45 4 47.08z"/><path class="st0" d="M38.77 84.91c7.74-2.72 16.31-9.66 14.54-19.83-.9-5.14-4.48-5-7.27-9.25 14.44-12 24.21-28.66 33.04-46.26H77.1C69.65 15.23 55.19 26.55 48.68 36c-2.6 3.78-4.59 9.31-7.27 13.88-4.54 7.75-15.12 21.23-6.61 31.06-1.38 4.62-1.2 12.39 3.96 12.56 3.28-1.73-1.38-4.61.01-8.59zm8.31-38.83c3.38.02 3.38 5.15 0 5.17-3.38-.02-3.38-5.15 0-5.17zM36.79 74.99c-1.86-9 7.01-16.95 11.9-9.25.25 7.42-6.19 15.77-11.9 9.25z"/><path class="st0" d="M55.95 51.2c13.96-5.2 30.58-7.75 38.99-18.5-9.41 1.38-18.12 3.47-27.76 4.63-2.13 6.23-7.02 9.71-11.23 13.87zM12.33 39.97c-4.22 12.25 8.42 15.99 21.81 13.88 14.69-17.99-14.08-29-21.81-13.88zm5.29 7.27C12.5 36.4 30.51 36.17 32.16 41.95c2.18 7.63-9.1 8.03-14.54 5.29z"/></symbol><symbol id="icon-haircut" viewBox="0 0 21 19.7"><style>.st0{fill:#826550}</style><g id="Page-1"><g id="Core" transform="translate(-127 -128)"><g id="content-cut" transform="translate(127.5 128)"><path id="Shape" class="st0" d="M7.5 3.9c.1-5.2-8.1-5.2-8 0-.1 2.8 3.1 5 5.6 3.6l2.4 2.4-2.4 2.4c-2.5-1.4-5.7.8-5.6 3.6.1 6.4 10.2 4.2 7.6-1.6l2.4-2.4 7 7h4L7.1 5.5c.3-.5.4-1 .4-1.6zm-4 2c-2.6 0-2.6-4 0-4s2.6 4 0 4zm0 12c-2.6 0-2.6-4 0-4s2.6 4 0 4zm6-8.5c.7 0 .7 1 0 1s-.7-1.1 0-1zm11-8.5h-4l-6 6 2 2 8-8z"/></g></g></g></symbol><symbol id="icon-mustache" viewBox="0 0 44.98 12.76"><style>.st0{fill:#826550}</style><path class="st0" d="M22.49 8.3c4.14 8.53 21.59 3.2 22.49-2.63C30.5 15.2 32.34-5.99 22.49 1.73 12.67-5.99 14.45 15.2 0 5.67c.92 5.85 18.35 11.14 22.49 2.63z"/></symbol><symbol id="icon-shaving" viewBox="0 0 22.03 21.21"><style>.st0{fill:#826550}</style><path class="st0" d="M21.79 0h-.1c-.99 3.3-1.25 7.32-4.01 8.85-.51-1.44-1.76-2.1-3.19-2.73-1.13-.44-2.34-1.5-3.47-1-1.13-.51-2.34.55-3.47 1-1.44.63-2.69 1.29-3.2 2.73C1.59 7.32 1.33 3.3.34 0h-.1c-.6 1.71.04 9.36.57 13.22 1.23 4.62 5.71 7.39 10.21 7.99 4.5-.6 8.98-3.37 10.21-7.99.53-3.89 1.14-11.48.56-13.22zm-5.97 12.03c-.1.67-.71 1.45-1.44 1.49-1.28.07-1.93-1.89-3.37-1.88-1.44-.01-2.09 1.95-3.37 1.88-1.85-.23-1.71-2.98-.72-3.91.96-.75 3.26-.31 4.09-1.35 0-.02 0-.02 0 0 1.86 1.59 5.1-.1 4.81 3.77z"/></symbol><symbol id="icon-time-triangle" viewBox="0 0 49.83 10.33"><path d="M24.92 10.33L49.83 0H0l24.92 10.33z"/></symbol></svg>