<svg xmlns="http://www.w3.org/2000/svg" viewBox="0 0 22.03 21.21"><path d="M21.79 0h-.1c-.99 3.3-1.25 7.32-4.01 8.85-.51-1.44-1.76-2.1-3.19-2.73-1.13-.44-2.34-1.5-3.47-1-1.13-.51-2.34.55-3.47 1-1.44.63-2.69 1.29-3.2 2.73C1.59 7.32 1.33 3.3.34 0h-.1c-.6 1.71.04 9.36.57 13.22 1.23 4.62 5.71 7.39 10.21 7.99 4.5-.6 8.98-3.37 10.21-7.99.53-3.89 1.14-11.48.56-13.22zm-5.97 12.03c-.1.67-.71 1.45-1.44 1.49-1.28.07-1.93-1.89-3.37-1.88-1.44-.01-2.09 1.95-3.37 1.88-1.85-.23-1.71-2.98-.72-3.91.96-.75 3.26-.31 4.09-1.35 0-.02 0-.02 0 0 1.86 1.59 5.1-.1 4.81 3.77z" fill="#826550"/></svg>