<svg version="1.1" id="Layer_1" xmlns="http://www.w3.org/2000/svg" x="0" y="0" viewBox="-0.24 -0.27 94.31 88.89" xml:space="preserve"><style>.st0{fill:#826550}</style><path class="st0" d="M87.19 22.42c-.57 1.73-1.13 3.48-1.68 5.22 9.76 17.92 3.39 42.95-12.98 54.17 1.16.71 2.22 1.58 3.14 2.67C94.22 71.34 100 41.77 87.19 22.42zM9.52 70.34c.45 0 .9.01 1.34.02-23.8-35.44 17.08-81.47 55.13-61.98.72-1.16 1.53-2.25 2.44-3.26-40.52-21.58-85.74 26.03-62.2 65.36 1.13-.11 2.25-.14 3.29-.14z"/><path class="st0" d="M53.45 82.04c.44-6.14-.87-14.02.66-19.07 4.53-.08 9.56.35 13.15-.66 7.76-15.7 14.01-35.56 18.42-53.27-.72-3.09-4.25-4.15-7.24-4.6-10.6 3.43-11.96 16.1-14.47 27.62-15.79-4.14-32.29-.06-32.88 15.13-13-1.21-12.54 13.58-3.29 15.79-4.66 20.81-15.88 7.8-26.3 14.46-.83 8.06 12.63 3.37 19.07 4.6 6.59-3.93 8.46-12.59 11.84-19.73 4.67.37 10.86-.78 14.47.66V82.7c-7.83.5-15.45 1.21-19.07 5.92h44.72c-3.26-5.29-12.48-4.63-19.08-6.58zM37.67 47.19c.68-11.7 15.37-11.69 25.65-8.55.1 4.72-.52 10.16 1.31 13.15-7.04-.85-17.07-4.4-26.96-4.6z"/></svg>