<?xml version="1.0" encoding="utf-8"?>
<!-- Generator: Adobe Illustrator 24.1.0, SVG Export Plug-In . SVG Version: 6.00 Build 0)  -->
<svg version="1.1" id="Layer_1" xmlns="http://www.w3.org/2000/svg" xmlns:xlink="http://www.w3.org/1999/xlink" x="0px" y="0px"
	 viewBox="22.91 52.39 44.66 104.78" style="enable-background:new 22.91 52.39 44.66 104.78;" xml:space="preserve">
<style type="text/css">
	.st0{fill:#826550;}
</style>
<path class="st0" d="M66.3,52.39c-0.04,0-0.08,0-0.12,0c-2.82,21.53-5.38,22.56-6.96,22.68c-1.43,0.11-3.64-1.77-4.92-2.52
	c-1.49-0.87-4.08-2.55-9.06-2.55s-7.57,1.67-9.06,2.55c-1.28,0.75-3.49,2.63-4.92,2.52c-1.58-0.12-4.14-1.15-6.96-22.68
	c-0.04,0-0.08,0-0.12,0c-2.07,12.21-1.56,50.2,1.2,63.6c2.61,18.52,10.11,35.1,13.44,39.6c0.68,1.04,3.53,1.57,6.42,1.58
	c2.89-0.02,5.74-0.54,6.42-1.58c3.33-4.5,10.83-21.08,13.44-39.6C67.86,102.59,68.37,64.6,66.3,52.39z M45.24,80.54
	c-3.4,0-6.69,0.18-10.14,0.53c1.13-1.75,8.99-3.24,10.14-3.45c1.15,0.21,9.01,1.7,10.14,3.45C51.93,80.72,48.63,80.54,45.24,80.54z"
	/>
</svg>
