<svg version="1.1" id="Layer_1" xmlns="http://www.w3.org/2000/svg" x="0" y="0" viewBox="0.26 -0.01 93.64 92" xml:space="preserve"><style>.st0{fill:#826550}</style><path class="st0" d="M47.08 8.17c11.91.05 11.91 18.16 0 18.21-11.91-.05-11.91-18.16 0-18.21z"/><path class="st0" d="M67.46 26.38H26.71c-3.7-.07-2.71 4.98-2.82 7.29-.02 1.95 1.84 3.07 3.64 2.82v45.39c-1.8-.25-3.67.86-3.64 2.82.15 2.31-.91 7.36 2.82 7.29h40.75a2.83 2.83 0 002.82-2.82c-.03-2.78.81-7.92-3.64-7.29V36.49c1.8.25 3.66-.86 3.64-2.82-.12-2.3.88-7.36-2.82-7.29zm-33.8 10.11h13.2l-13.2 13.2v-13.2zM60.5 81.88H47.03L60.5 68.41v13.47zm0-28.71L33.66 80.01V64.93L60.5 38.09v15.08z"/><path class="st0" d="M47.08 0C2.43-.95-16.93 59.37 18.89 84.79a7.72 7.72 0 011.18-4.19C-11.28 56.64 7.06 3.16 47.08 4c40.02-.84 58.37 52.64 27.02 76.6a7.86 7.86 0 011.18 4.18C111.1 59.36 91.72-.95 47.08 0z"/></svg>