<svg version="1.1" id="Layer_1" xmlns="http://www.w3.org/2000/svg" x="0" y="0" viewBox="0 0 94.94 94.16" xml:space="preserve"><style>.st0{fill:#826550}</style><path class="st0" d="M90.28 28.39c-2.1-4.84-4.99-9.26-8.51-13.1-.65 1.26-1.31 2.52-1.98 3.78 2.58 3.01 4.75 6.37 6.42 10.01 1.35-.24 2.71-.46 4.07-.69zm-.27 15.17C92.34 69.32 70.55 91.7 44.74 90.1c.33 1.24.29 2.78-.18 4 29.01 1.86 53.31-24.4 49.19-53.17-1.19.95-2.44 1.82-3.74 2.63zM4 47.08C3.09 14.63 41.28-7.02 68.65 9.79c1.08-.86 2.21-1.74 3.36-2.62-59.59-33.07-104 55.46-42.35 83.64-.4-1.5-.56-3.07-.57-4.58C14.28 79.41 4 64.45 4 47.08z"/><path class="st0" d="M38.77 84.91c7.74-2.72 16.31-9.66 14.54-19.83-.9-5.14-4.48-5-7.27-9.25 14.44-12 24.21-28.66 33.04-46.26H77.1C69.65 15.23 55.19 26.55 48.68 36c-2.6 3.78-4.59 9.31-7.27 13.88-4.54 7.75-15.12 21.23-6.61 31.06-1.38 4.62-1.2 12.39 3.96 12.56 3.28-1.73-1.38-4.61.01-8.59zm8.31-38.83c3.38.02 3.38 5.15 0 5.17-3.38-.02-3.38-5.15 0-5.17zM36.79 74.99c-1.86-9 7.01-16.95 11.9-9.25.25 7.42-6.19 15.77-11.9 9.25z"/><path class="st0" d="M55.95 51.2c13.96-5.2 30.58-7.75 38.99-18.5-9.41 1.38-18.12 3.47-27.76 4.63-2.13 6.23-7.02 9.71-11.23 13.87zM12.33 39.97c-4.22 12.25 8.42 15.99 21.81 13.88 14.69-17.99-14.08-29-21.81-13.88zm5.29 7.27C12.5 36.4 30.51 36.17 32.16 41.95c2.18 7.63-9.1 8.03-14.54 5.29z"/></svg>