<?xml version="1.0" encoding="utf-8"?>
<!-- Generator: Adobe Illustrator 24.1.0, SVG Export Plug-In . SVG Version: 6.00 Build 0)  -->
<svg version="1.1" id="Layer_1" xmlns="http://www.w3.org/2000/svg" xmlns:xlink="http://www.w3.org/1999/xlink" x="0px" y="0px"
	 viewBox="28.5 48.84 57 97.68" style="enable-background:new 28.5 48.84 57 97.68;" xml:space="preserve">
<style type="text/css">
	.st0{fill:#826550;}
</style>
<path class="st0" d="M79.62,64.08c-0.4-5.45-0.61-10.85-2.52-15.24c-0.76,0-1.53,7.31-2.28,10.92c-1.48,7.14-3.71,8.28-4.44,8.28
	c-0.86-3.86-4.38-4.24-7.8-5.88c-1.21-0.58-2.31-1.05-3.6-1.2c-0.67-0.08-1.29,0.1-1.98,0.12c-0.69-0.02-1.31-0.19-1.98-0.12
	c-1.29,0.15-2.39,0.62-3.6,1.2c-3.42,1.64-6.94,2.02-7.8,5.88c-0.72,0-2.96-1.14-4.44-8.28c-0.75-3.61-1.51-10.92-2.28-10.92
	c-1.91,4.39-2.13,9.79-2.52,15.24c-0.88,23.54-5.88,36.29-5.88,47.16c0,26.07,11.71,35.28,28.5,35.28c16.79,0,28.5-9.21,28.5-35.28
	C85.5,100.37,80.5,87.62,79.62,64.08z M62.94,73.8c-2.79,1.17-5.35-0.71-5.88-0.72c-0.02,0-0.04,0.01-0.06,0.01
	c-0.02,0-0.04-0.01-0.06-0.01c-0.53,0.01-3.09,1.89-5.88,0.72c-0.79-3.58,2.4-4.04,5.94-3.9C60.54,69.76,63.72,70.22,62.94,73.8z"/>
</svg>
